<svg xmlns="http://www.w3.org/2000/svg" xmlns:svg="http://www.w3.org/2000/svg" xmlns:xlink="http://www.w3.org/1999/xlink" id="svg113936" width="25.512" height="25.512" x="0" y="0" enable-background="new 0 0 25.512 25.512" version="1.0" viewBox="0 0 25.512 25.512" xml:space="preserve"><g><linearGradient id="SVGID_1_" x1="-3107.951" x2="-3082.439" y1="-1423.476" y2="-1423.476" gradientTransform="matrix(0 1 -1 0 -1623.33704 477.78479)" gradientUnits="userSpaceOnUse"><stop offset="0" style="stop-color:#828181"/><stop offset="1" style="stop-color:#575757"/></linearGradient><path fill="url(#SVGID_1_)" d="M-199.86099-2604.65454c-7.03368,0-12.75618-5.72192-12.75618-12.75513 c0-7.03418,5.7225-12.7561,12.75618-12.7561c7.03366,0,12.75563,5.72192,12.75563,12.7561 C-187.10536-2610.37646-192.82732-2604.65454-199.86099-2604.65454z"/></g><linearGradient id="SVGID_2_" x1="-1443.92" x2="-1419.182" y1="4596.483" y2="4596.483" gradientTransform="matrix(0 1 1 0 -4796.34375 -1185.84595)" gradientUnits="userSpaceOnUse"><stop offset=".006" style="stop-color:#fff"/><stop offset="1" style="stop-color:#7a7a7a"/></linearGradient><circle cx="-199.861" cy="-2617.397" r="12.369" fill="url(#SVGID_2_)"/><circle cx="-199.861" cy="-2617.397" r="11.635" fill="#E0E0E0"/><linearGradient id="SVGID_3_" x1="-152.849" x2="-152.849" y1="-1733.421" y2="-1736.51" gradientTransform="matrix(1 0 0 1 -47.00625 -882.44495)" gradientUnits="userSpaceOnUse"><stop offset="0" style="stop-color:#fffbfd"/><stop offset="1" style="stop-color:gray"/></linearGradient><path fill="url(#SVGID_3_)" d="M-211.36813-2618.95459l-0.4787,0.46436c-0.49011,0.64502-0.48662,1.53857,0.00854,2.17969	l0.44371,0.41162l23.06136,0.0332l0.44835-0.42798c0.51234-0.63818,0.51607-1.54565,0.00896-2.18823l-0.45732-0.44678	L-211.36813-2618.95459z"/><path d="M-199.8611-2625.91187c5.88124,0,10.64893,4.5332,10.64893,10.12524	s-4.76768,11.13208-10.64893,11.13208s-10.64893-5.54004-10.64893-11.13208S-205.74234-2625.91187-199.8611-2625.91187z" enable-background="new" opacity=".3"/><linearGradient id="path109732_4_" x1="-1158.012" x2="-1137.449" y1="4163.818" y2="4163.818" gradientTransform="matrix(0 1 1 0 -4363.6792 -1469.66663)" gradientUnits="userSpaceOnUse"><stop offset="0" style="stop-color:#828181"/><stop offset="1" style="stop-color:#575757"/></linearGradient><path id="path109732_00000021825409866966656510000016532748346234210446_" fill="url(#path109732_4_)" d="M-202.15471-2607.37695c-5.53403-1.2666-8.99316-6.77954-7.72653-12.31372c1.26665-5.53394,6.77956-8.99316,12.31357-7.72632	c5.53101,1.2666,8.99315,6.77954,7.72653,12.31348C-191.1078-2609.57251-196.6207-2606.11035-202.15471-2607.37695"/><linearGradient id="path109732_5_" x1="-1157.79" x2="-1137.671" y1="4163.818" y2="4163.818" gradientTransform="matrix(0 1 1 0 -4363.6792 -1469.66663)" gradientUnits="userSpaceOnUse"><stop offset="0" style="stop-color:#fffcfc"/><stop offset="1" style="stop-color:#c2c2c2"/></linearGradient><path id="path109732_00000173144871293985343460000011737323852663088514_" fill="url(#path109732_5_)" d="M-202.10515-2607.59351c-5.4144-1.23926-8.79877-6.63306-7.55952-12.04761c1.23927-5.41431,6.63303-8.79883,12.04742-7.55933	c5.41145,1.23926,8.79878,6.63281,7.55952,12.04736C-191.297-2609.7417-196.69075-2606.35425-202.10515-2607.59351" enable-background="new" opacity=".79"/><linearGradient id="path109732_6_" x1="-199.861" x2="-199.861" y1="2652.791" y2="2633.783" gradientTransform="matrix(1 0 0 -1 0 25.88983)" gradientUnits="userSpaceOnUse"><stop offset="0" style="stop-color:#fffcfc"/><stop offset="1" style="stop-color:#c2c2c2"/></linearGradient><path id="path109732_00000181783666915822318410000002835915533121502593_" fill="url(#path109732_6_)" d="M-201.9814-2608.13428c-5.11581-1.1709-8.31355-6.26709-7.14264-11.38306c1.17093-5.11572,6.26723-8.31348,11.38304-7.14258	c5.11302,1.1709,8.31354,6.26733,7.14264,11.38306C-191.7693-2610.16382-196.86559-2606.96338-201.9814-2608.13428"/><linearGradient id="SVGID_4_" x1="-248.205" x2="-248.205" y1="4584.776" y2="4567.149" gradientTransform="matrix(-1 0 0 -0.50871 -448.06601 -294.26236)" gradientUnits="userSpaceOnUse"><stop offset="0" style="stop-color:#fdfdff"/><stop offset="1" style="stop-color:#fcfeff;stop-opacity:0"/></linearGradient><ellipse cx="-199.861" cy="-2622.117" fill="url(#SVGID_4_)" enable-background="new" opacity=".9" rx="6.707" ry="4.484"/><circle cx="-199.903" cy="-2624.486" r="1.369" fill="#383838"/><g><linearGradient id="SVGID_5_" x1="-602.399" x2="-576.888" y1="1786.597" y2="1786.597" gradientTransform="matrix(0 1 1 0 -1773.84119 602.39905)" gradientUnits="userSpaceOnUse"><stop offset="0" style="stop-color:#828181"/><stop offset="1" style="stop-color:#575757"/></linearGradient><path fill="url(#SVGID_5_)" d="M12.75617,25.51125C5.7225,25.51125,0,19.7893,0,12.75617C0,5.72195,5.7225,0,12.75617,0 S25.5118,5.72195,25.5118,12.75618C25.5118,19.7893,19.78985,25.51125,12.75617,25.51125z"/></g><linearGradient id="SVGID_6_" x1="1061.631" x2="1086.369" y1="-4090.596" y2="-4090.596" gradientTransform="matrix(0 1 -1 0 -4077.83984 -1061.23169)" gradientUnits="userSpaceOnUse"><stop offset=".006" style="stop-color:#fff"/><stop offset="1" style="stop-color:#7a7a7a"/></linearGradient><circle cx="12.756" cy="12.769" r="12.369" fill="url(#SVGID_6_)"/><circle cx="12.756" cy="12.769" r="11.635" fill="#E0E0E0"/><linearGradient id="SVGID_7_" x1="59.768" x2="59.768" y1="-53.627" y2="-50.538" gradientTransform="matrix(1 0 0 -1 -47.00625 -39.32658)" gradientUnits="userSpaceOnUse"><stop offset="0" style="stop-color:#fffbfd"/><stop offset="1" style="stop-color:gray"/></linearGradient><path fill="url(#SVGID_7_)" d="M1.24903,11.21111l-0.47869,0.46441c-0.49011,0.64501-0.48661,1.53861,0.00855,2.17976	l0.44371,0.41163l23.06135,0.03324l0.44834-0.42812c0.51235-0.63821,0.51607-1.54568,0.00897-2.18806l-0.45732-0.44676	L1.24903,11.21111z"/><path d="M12.75607,4.25394c5.88124,0,10.64893,4.53325,10.64893,10.1253s-4.76769,11.13201-10.64893,11.13201	S2.10714,19.97129,2.10714,14.37924S6.87483,4.25394,12.75607,4.25394z" opacity=".3"/><linearGradient id="path109732_7_" x1="1347.54" x2="1368.102" y1="-3657.931" y2="-3657.931" gradientTransform="matrix(0 1 -1 0 -3645.17529 -1345.05237)" gradientUnits="userSpaceOnUse"><stop offset="0" style="stop-color:#828181"/><stop offset="1" style="stop-color:#575757"/></linearGradient><path id="path109732_3_" fill="url(#path109732_7_)" d="M10.46245,22.78881	c-5.53401-1.26663-8.99316-6.7796-7.72653-12.31359c1.26665-5.53403,6.77955-8.99322,12.31357-7.7265	c5.53101,1.26663,8.99316,6.77951,7.72653,12.31357C21.50937,20.59325,15.99647,24.0554,10.46245,22.78881"/><linearGradient id="path109732_8_" x1="1347.762" x2="1367.88" y1="-3657.931" y2="-3657.931" gradientTransform="matrix(0 1 -1 0 -3645.17529 -1345.05237)" gradientUnits="userSpaceOnUse"><stop offset="0" style="stop-color:#fffcfc"/><stop offset="1" style="stop-color:#c2c2c2"/></linearGradient><path id="path109732_2_" fill="url(#path109732_8_)" d="M10.51202,22.57224	c-5.4144-1.23925-8.79878-6.63306-7.55952-12.04744c1.23927-5.41442,6.63302-8.79884,12.04742-7.5595	c5.41146,1.23925,8.79878,6.63298,7.55952,12.04742C21.32017,20.42413,15.92642,23.81145,10.51202,22.57224" opacity=".79"/><linearGradient id="path109732_9_" x1="12.756" x2="12.756" y1="3.264" y2="22.273" gradientUnits="userSpaceOnUse"><stop offset="0" style="stop-color:#fff"/><stop offset="1" style="stop-color:#d9d9d9"/></linearGradient><path id="path109732_1_" fill="url(#path109732_9_)" d="M10.63577,22.0316	c-5.11581-1.17091-8.31355-6.26727-7.14264-11.38306c1.17093-5.11583,6.26723-8.3136,11.38304-7.14262	c5.11303,1.17091,8.31355,6.26719,7.14264,11.38304C20.84787,20.00195,15.75158,23.20247,10.63577,22.0316"/><linearGradient id="SVGID_8_" x1="107.178" x2="107.178" y1="216.723" y2="234.35" gradientTransform="matrix(-1 0 0 0.50871 119.93398 -106.68469)" gradientUnits="userSpaceOnUse"><stop offset="0" style="stop-color:#fdfdff"/><stop offset="1" style="stop-color:#fcfeff;stop-opacity:0"/></linearGradient><ellipse cx="12.756" cy="8.049" fill="url(#SVGID_8_)" opacity=".9" rx="6.707" ry="4.484"/></svg>