<svg xmlns="http://www.w3.org/2000/svg" xmlns:svg="http://www.w3.org/2000/svg" xmlns:xlink="http://www.w3.org/1999/xlink" id="svg258108" width="28.348" height="13.457" x="0" y="0" enable-background="new 0 0 28.348 13.457" version="1.0" viewBox="0 0 28.348 13.457" xml:space="preserve"><path id="path243332_1_" d="M26.9297-0.00001c0.78124,0,1.41797,0.6406,1.41797,1.41793v10.62499	c0,0.77739-0.63671,1.4141-1.41797,1.4141H1.41796c-0.77735,0-1.41797-0.63669-1.41797-1.4141V1.41792	c0-0.77733,0.64062-1.41793,1.41797-1.41793C1.41796-0.00001,26.9297-0.00001,26.9297-0.00001z"/><linearGradient id="path243334_2_" x1="14.176" x2="14.176" y1="21.285" y2="-4.523" gradientTransform="matrix(6.123234e-17 1 1 -6.123234e-17 5.793 -7.44532)" gradientUnits="userSpaceOnUse"><stop offset="0" style="stop-color:#3b3b3b"/><stop offset="1" style="stop-color:#242424"/></linearGradient><path id="path243334_1_" fill="url(#path243334_2_)" d="M27.07812,11.32419V2.1367c0-0.48326-0.39176-0.87501-0.87501-0.87501H2.14454c-0.48326,0-0.87501,0.39176-0.87501,0.87501v9.18749	c0,0.48326,0.39176,0.87501,0.87501,0.87501h24.05857C26.68637,12.1992,27.07812,11.80745,27.07812,11.32419z" enable-background="new" opacity=".54"/><rect width="1.717" height="12" x="25.826" y=".73" enable-background="new" opacity=".3"/><g><linearGradient id="path5815_1_" x1="-.719" x2="-.719" y1="14.982" y2="6.135" gradientTransform="matrix(6.123234e-17 -1 -1 -6.123234e-17 24.73242 6.01166)" gradientUnits="userSpaceOnUse"><stop offset=".006" style="stop-color:#3d3b3b"/><stop offset="1" style="stop-color:#2d2c2c"/></linearGradient><path id="path5815_2_" fill="url(#path5815_1_)" d="M9.75058,12.20116V1.25973h8.84651v10.94143 H9.75058z"/><path id="path5817_2_" fill="#5E5E5E" d="M13.29751,12.20116V1.25973h0.87738v10.94143H13.29751z"/><path id="path5819_2_" fill="#5E5E5E" d="M16.84443,12.20116V1.25973h0.87738v10.94143H16.84443z"/><path id="path5821_2_" fill="#5E5E5E" d="M15.07183,12.20116V1.25973h0.87738v10.94143H15.07183z"/><path id="path5823_2_" fill="#5E5E5E" d="M11.5241,12.20116V1.25973h0.87738v10.94143H11.5241z"/><path id="path5825_4_" fill="#5E5E5E" d="M9.75058,12.20116V1.25973h0.87738v10.94143H9.75058z"/><path id="path5825_2_" fill="#FFF" d="M9.75058,1.26365h8.84651v0.87738 H9.75058V1.26365z" opacity=".1"/><path id="path5825_3_" d="M9.75058,11.32378h8.84651v0.87738H9.75058V11.32378z" opacity=".2"/></g></svg>