<svg xmlns="http://www.w3.org/2000/svg" xmlns:svg="http://www.w3.org/2000/svg" xmlns:xlink="http://www.w3.org/1999/xlink" id="svg258108" width="13.457" height="28.348" x="0" y="0" enable-background="new 0 0 13.457 28.348" version="1.0" viewBox="0 0 13.457 28.348" xml:space="preserve"><path id="path243332_1_" d="M-0.00001,1.41797C-0.00001,0.63673,0.64059,0,1.41792,0h10.62499	c0.77739,0,1.4141,0.63671,1.4141,1.41797V26.9297c0,0.77735-0.63669,1.41797-1.4141,1.41797H1.41792	c-0.77733,0-1.41793-0.64062-1.41793-1.41797V1.41797z"/><linearGradient id="path243334_2_" x1="6.73" x2="6.73" y1="1.27" y2="27.078" gradientUnits="userSpaceOnUse"><stop offset="0" style="stop-color:#3b3b3b"/><stop offset="1" style="stop-color:#242424"/></linearGradient><path id="path243334_1_" fill="url(#path243334_2_)" d="M11.32419,1.26955H2.1367	c-0.48326,0-0.87501,0.39176-0.87501,0.87501v24.05857c0,0.48326,0.39176,0.87501,0.87501,0.87501h9.18749	c0.48326,0,0.87501-0.39176,0.87501-0.87501V2.14456C12.1992,1.6613,11.80745,1.26955,11.32419,1.26955z" opacity=".54"/><rect width="12" height="1.717" x=".73" y=".805" opacity=".3"/><rect width="12" height="3.547" x=".636" y="17.722" opacity=".44"/><g><linearGradient id="path5815_2_" x1="6.728" x2="6.728" y1="9.751" y2="18.597" gradientUnits="userSpaceOnUse"><stop offset=".006" style="stop-color:#3d3b3b"/><stop offset="1" style="stop-color:#2d2c2c"/></linearGradient><path id="path5815_1_" fill="url(#path5815_2_)" d="M1.25777,9.75058H12.1992v8.84651H1.25777 V9.75058z"/><path id="path5817_1_" fill="#5E5E5E" d="M1.25777,13.2975H12.1992v0.87738H1.25777V13.2975z"/><path id="path5819_1_" fill="#5E5E5E" d="M1.25777,16.84443H12.1992v0.87738H1.25777V16.84443z"/><path id="path5821_1_" fill="#5E5E5E" d="M1.25777,15.07182H12.1992v0.87738H1.25777V15.07182z"/><path id="path5823_1_" fill="#5E5E5E" d="M1.25777,11.5241H12.1992v0.87738H1.25777V11.5241z"/><path id="path5825_1_" fill="#797979" d="M1.25777,9.75058H12.1992v0.87738H1.25777V9.75058z"/></g></svg>