<svg xmlns="http://www.w3.org/2000/svg" xmlns:svg="http://www.w3.org/2000/svg" xmlns:xlink="http://www.w3.org/1999/xlink" id="svg258108" width="13.457" height="28.348" x="0" y="0" enable-background="new 0 0 13.457 28.348" version="1.0" viewBox="0 0 13.457 28.348" xml:space="preserve"><path id="path243332_1_" d="M0,1.41797C0,0.63673,0.6406,0,1.41793,0h10.62499	c0.77739,0,1.4141,0.63671,1.4141,1.41797V26.9297c0,0.77735-0.63669,1.41797-1.4141,1.41797H1.41793	C0.6406,28.34767,0,27.70704,0,26.9297V1.41797z"/><linearGradient id="path243334_2_" x1="6.73" x2="6.73" y1="1.27" y2="27.078" gradientUnits="userSpaceOnUse"><stop offset="0" style="stop-color:#3b3b3b"/><stop offset="1" style="stop-color:#242424"/></linearGradient><path id="path243334_1_" fill="url(#path243334_2_)" d="M11.3242,1.26955H2.13671	c-0.48326,0-0.87501,0.39176-0.87501,0.87501v24.05857c0,0.48326,0.39176,0.87501,0.87501,0.87501h9.18749	c0.48326,0,0.87501-0.39176,0.87501-0.87501V2.14456C12.19921,1.6613,11.80746,1.26955,11.3242,1.26955z" opacity=".54"/><rect width="12" height="3.547" x=".636" y="9.188" opacity=".44"/><g><linearGradient id="path5815_2_" x1="6.729" x2="6.729" y1="1.216" y2="10.063" gradientUnits="userSpaceOnUse"><stop offset=".006" style="stop-color:#3d3b3b"/><stop offset="1" style="stop-color:#2d2c2c"/></linearGradient><path id="path5815_1_" fill="url(#path5815_2_)" d="M1.25778,1.21638h10.94143v8.84651H1.25778 V1.21638z"/><path id="path5817_1_" fill="#5E5E5E" d="M1.25778,4.76331h10.94143v0.87738H1.25778V4.76331z"/><path id="path5819_1_" fill="#5E5E5E" d="M1.25778,8.31023h10.94143v0.87738H1.25778V8.31023z"/><path id="path5821_1_" fill="#5E5E5E" d="M1.25778,6.53763h10.94143v0.87738H1.25778V6.53763z"/><path id="path5823_1_" fill="#5E5E5E" d="M1.25778,2.9899h10.94143v0.87738H1.25778V2.9899z"/><path id="path5825_1_" fill="#797979" d="M1.25778,1.21638h10.94143v0.87738H1.25778V1.21638z"/></g></svg>