<svg xmlns="http://www.w3.org/2000/svg" xmlns:svg="http://www.w3.org/2000/svg" id="svg20198" width="32" height="43.883" x="0" y="0" enable-background="new 0 0 32 43.883" version="1.0" viewBox="0 0 32 43.883" xml:space="preserve"><g id="g96"><linearGradient id="SVGID_1_" x1="15.914" x2="15.914" y1="34.422" y2="9.345" gradientTransform="matrix(1 0 0 -1 0 43.88983)" gradientUnits="userSpaceOnUse"><stop offset="0" style="stop-color:#828181" id="stop5"/><stop offset="1" style="stop-color:#575757" id="stop7"/></linearGradient><path id="path10" fill="url(#SVGID_1_)" d="M21.76192,9.46738H10.06685c-0.86114,0-1.65685,0.45941-2.08742,1.20517L2.13189,20.80079 c-0.43057,0.74577-0.43057,1.66459,0,2.41036l5.84753,10.12823c0.43057,0.74577,1.22629,1.20517,2.08742,1.20517h11.69507 c0.86114,0,1.65686-0.45942,2.08742-1.20517l5.84753-10.12823c0.43057-0.74577,0.43057-1.66459,0-2.41035l-5.84753-10.12823 C23.41878,9.92679,22.62305,9.46738,21.76192,9.46738z"/><linearGradient id="SVGID_00000011724221056106167080000012316488423049437834_" x1="15.914" x2="15.914" y1="33.887" y2="9.881" gradientTransform="matrix(1 0 0 -1 0 43.88983)" gradientUnits="userSpaceOnUse"><stop offset=".006" style="stop-color:#f2f2f2" id="stop12"/><stop offset="1" style="stop-color:#c7c7c7" id="stop14"/></linearGradient><polygon id="polygon17" fill="url(#SVGID_00000011724221056106167080000012316488423049437834_)" points="22.844 10.003 8.984 10.003 2.055 22.006 8.984 34.009 22.844 34.009 29.774 22.006"/><circle id="circle19" cx="15.915" cy="21.913" r="11.186" fill="#E0E0E0"/><linearGradient id="SVGID_00000162342750860270092110000015706214213195423368_" x1="-1917.853" x2="-1898.226" y1="1095.852" y2="1095.852" gradientTransform="matrix(0 -1 1 0 -1079.93701 -1886.1261)" gradientUnits="userSpaceOnUse"><stop offset="0" style="stop-color:#b0aeae" id="stop21"/><stop offset="1" style="stop-color:#616161" id="stop23"/></linearGradient><circle id="circle26" cx="15.915" cy="21.913" r="9.814" fill="url(#SVGID_00000162342750860270092110000015706214213195423368_)"/><circle id="circle28" cx="15.915" cy="21.906" r="9.351" fill="#0D0D0D"/><circle id="circle30" cx="15.915" cy="21.911" r="4.739"/><linearGradient id="SVGID_00000041290219122321013730000005879340300429721751_" x1="-2442.928" x2="-2442.928" y1="809.229" y2="826.803" gradientTransform="matrix(-1 0 0 1 -2427.01343 -796.11017)" gradientUnits="userSpaceOnUse"><stop offset=".006" style="stop-color:#707070" id="stop32"/><stop offset="1" style="stop-color:#171616" id="stop34"/></linearGradient><circle id="circle37" cx="15.915" cy="21.906" r="8.787" fill="url(#SVGID_00000041290219122321013730000005879340300429721751_)"/><g id="g41" opacity=".1"><path id="path39" d="M29.83272,22.05834c-0.35173-0.20308-2.18816,2.31919-4.10176,5.63365s-3.17974,6.16597-2.82801,6.36904 L29.83272,22.05834z"/></g><g id="g45" opacity=".15"><path id="path43" d="M22.84466,34.05352c-0.00022-0.40615-3.10296-0.73372-6.93016-0.73164s-6.92958,0.333-6.92936,0.73915L22.84466,34.05352z"/></g><g id="g49" opacity=".1"><path id="path47" d="M2.05456,22.05834c0.35173-0.20308,2.18816,2.31919,4.10176,5.63365s3.17974,6.16597,2.82801,6.36904L2.05456,22.05834z"/></g><path id="path51" fill="#FFF" d="M29.83272,22.00569 c-0.35173,0.20308-2.18816-2.31919-4.10176-5.63364s-3.17973-6.16597-2.828-6.36905L29.83272,22.00569z" enable-background="new" opacity=".5"/><path id="path53" fill="#FFF" d="M2.05456,22.00569 c0.35173,0.20308,2.18816-2.31919,4.10176-5.63364s3.17974-6.16597,2.82801-6.36905L2.05456,22.00569z" enable-background="new" opacity=".5"/><linearGradient id="SVGID_00000151528136187052672200000010972216664118976168_" x1="-2442.924" x2="-2442.924" y1="809.229" y2="826.708" gradientTransform="matrix(-1 0 0 1 -2427.01343 -796.11017)" gradientUnits="userSpaceOnUse"><stop offset="0" style="stop-color:#fffefe" id="stop55"/><stop offset="1" style="stop-color:#545454" id="stop57"/></linearGradient><circle id="circle60" cx="15.911" cy="21.858" r="8.74" fill="url(#SVGID_00000151528136187052672200000010972216664118976168_)"/><circle id="circle62" cx="15.911" cy="21.858" r="7.788" fill="#E0E0E0"/><circle id="circle64" cx="15.911" cy="21.858" r="15.987" fill="none"/><g id="g72" opacity=".43"><path id="path66" fill="#404040" d="M15.91088,13.63261c4.78107,0,8.65947,3.7302,8.73,8.35583c0.00062-0.0439,0.00657-0.08647,0.00657-0.1305 c0-4.82672-3.91145-8.7395-8.73657-8.7395s-8.73664,3.91278-8.73664,8.7395c0,0.04403,0.00594,0.0866,0.00657,0.1305 C7.25134,17.36282,11.1298,13.63261,15.91088,13.63261z"/><path id="path68" fill="#404040" d="M7.18081,21.98844 c-0.00063,0.04264-0.00657,0.08388-0.00657,0.12666c0,4.68468,3.91152,8.48241,8.73664,8.48241 C11.1298,30.59751,7.25134,26.75435,7.18081,21.98844z" enable-background="new" opacity=".28"/><path id="path70" fill="#404040" d="M15.91088,30.59751 c4.82512,0,8.73657-3.79773,8.73657-8.48241c0-0.04278-0.00595-0.08402-0.00657-0.12666 C24.57035,26.75435,20.69196,30.59751,15.91088,30.59751z" enable-background="new" opacity=".28"/></g><linearGradient id="SVGID_00000093883040637519398730000000194708678221841039_" x1="-2442.924" x2="-2442.924" y1="824.949" y2="810.987" gradientTransform="matrix(-1 0 0 1 -2427.01343 -796.11017)" gradientUnits="userSpaceOnUse"><stop offset="0" style="stop-color:#fffefe" id="stop74"/><stop offset="1" style="stop-color:#706c6c" id="stop76"/></linearGradient><circle id="circle79" cx="15.911" cy="21.858" r="6.981" fill="url(#SVGID_00000093883040637519398730000000194708678221841039_)"/><linearGradient id="SVGID_00000160907508987159623320000005416213705164877225_" x1="-2442.911" x2="-2442.911" y1="811.806" y2="824.13" gradientTransform="matrix(-1 0 0 1 -2427.01343 -796.11017)" gradientUnits="userSpaceOnUse"><stop offset="0" style="stop-color:#faf9f9" id="stop81"/><stop offset="1" style="stop-color:#545454" id="stop83"/></linearGradient><circle id="circle86" cx="15.897" cy="21.858" r="6.162" fill="url(#SVGID_00000160907508987159623320000005416213705164877225_)"/><g id="g94" opacity=".5"><path id="path88" fill="#404040" d="M15.89729,17.05821c3.37118,0,6.10586,1.6302,6.15559,4.89176 c0.00044-0.03095,0.00463-0.06097,0.00463-0.09202c0-3.40336-2.758-6.1623-6.16022-6.1623s-6.16027,2.75894-6.16027,6.1623 c0,0.03105,0.00419,0.06107,0.00463,0.09202C9.79138,18.6884,12.52612,17.05821,15.89729,17.05821z"/><path id="path90" fill="#404040" d="M9.74165,21.94997 c-0.00044,0.03007-0.00463,0.05914-0.00463,0.08931c0,3.30321,2.75805,5.98102,6.16028,5.98102 C12.52612,28.02029,9.79138,25.31045,9.74165,21.94997z" enable-background="new" opacity=".28"/><path id="path92" fill="#404040" d="M15.89729,28.02029 c3.40223,0,6.16022-2.67781,6.16022-5.98102c0-0.03016-0.00419-0.05924-0.00463-0.08931 C22.00315,25.31045,19.26847,28.02029,15.89729,28.02029z" enable-background="new" opacity=".28"/></g></g><linearGradient id="SVGID_00000152969447965834217190000004531869535487010711_" x1="8.702" x2="23.186" y1="22.195" y2="22.195" gradientTransform="matrix(1 0 0 -1 0 43.88983)" gradientUnits="userSpaceOnUse"><stop offset="0" style="stop-color:#828181" id="stop100"/><stop offset="1" style="stop-color:#575757" id="stop102"/></linearGradient><path id="path105" fill="url(#SVGID_00000152969447965834217190000004531869535487010711_)" d="M8.70181,21.69526 c0,1.01953,0.21286,1.98875,0.5931,2.86875H22.5925c0.38024-0.88001,0.5931-1.84922,0.5931-2.86875s-0.21286-1.98875-0.5931-2.86875 H9.29491C8.91467,19.70651,8.70181,20.67573,8.70181,21.69526z"/><path id="path107" fill="#E0E0E0" d="M8.96626,21.69526c0,0.94366,0.19702,1.84075,0.54896,2.65527H22.3722 c0.35194-0.81452,0.54896-1.71161,0.54896-2.65527s-0.19702-1.84075-0.54896-2.65527H9.51522 C9.16327,19.85451,8.96626,20.7516,8.96626,21.69526z"/><polygon id="polygon109" fill="#FFF" points="22.554 19.507 9.334 19.507 9.515 19.04 22.372 19.04"/><g id="g113" opacity=".15"><polygon id="polygon111" points="22.372 24.351 9.515 24.351 9.334 23.883 22.554 23.883"/></g><path id="path115" d="M19.78062,24.42746l3.22107,9.00289 c0.33171,0.92712,0.20907,1.98553-0.32236,2.78217l-0.08537,0.12797c-0.12326,0.18477-0.31497,0.29322-0.51835,0.29322H9.81184 c-0.20337,0-0.39509-0.10845-0.51835-0.29322l-0.08536-0.12797c-0.53144-0.79664-0.65407-1.85505-0.32236-2.78217l3.22107-9.00289 C12.10684,24.42747,19.78062,24.42747,19.78062,24.42746z" enable-background="new" opacity=".2"/></svg>