<svg xmlns="http://www.w3.org/2000/svg" xmlns:svg="http://www.w3.org/2000/svg" xmlns:xlink="http://www.w3.org/1999/xlink" id="svg27765" width="28.348" height="28.348" x="0" y="0" enable-background="new 0 0 28.348 28.348" version="1.0" viewBox="0 0 28.348 28.348" xml:space="preserve"><g id="g5959-5_79_" transform="translate(301.93513,1189.951)"><linearGradient id="path5961-3_1_" x1="-591.365" x2="-563.018" y1="-2196.559" y2="-2196.559" gradientTransform="matrix(-3.267949e-07 1 -1 -3.267949e-07 -2484.32056 -598.5863)" gradientUnits="userSpaceOnUse"><stop offset="0" style="stop-color:#787878"/><stop offset="1" style="stop-color:#474747"/></linearGradient><path id="path5961-3_85_" fill="url(#path5961-3_1_)" d="M-301.93512-1175.77832 c0-7.82739,6.3476-14.17273,14.1749-14.17273c7.82623,0,14.17282,6.34534,14.17279,14.17273 c0,7.83057-6.34656,14.17493-14.17279,14.17493C-295.58752-1161.60339-301.93512-1167.94775-301.93512-1175.77832"/></g><g opacity=".21"><g id="g5959-5_78_" transform="translate(301.93513,1189.951)"><linearGradient id="path5961-3_2_" x1="-301.671" x2="-276.03" y1="-1116.008" y2="-1116.008" gradientTransform="matrix(-6.535898e-07 -1 1 -6.535898e-07 828.24695 -1464.6283)" gradientUnits="userSpaceOnUse"><stop offset=".006" style="stop-color:#6b6b6b"/><stop offset="1" style="stop-color:#dedede"/></linearGradient><path id="path5961-3_84_" fill="url(#path5961-3_2_)" d="M-287.76224-1162.95642 c-7.08017,0-12.81985-5.7417-12.81985-12.82178c0-7.0791,5.73965-12.81982,12.81985-12.81982 c7.08304,0,12.82178,5.74072,12.82178,12.81982C-274.94046-1168.69812-280.6792-1162.95642-287.76224-1162.95642"/></g></g><g><g id="g5959-5_77_" transform="translate(301.93513,1189.951)"><linearGradient id="path5961-3_3_" x1="-300.764" x2="-276.937" y1="-1116.008" y2="-1116.008" gradientTransform="matrix(-6.535898e-07 -1 1 -6.535898e-07 828.24695 -1464.6283)" gradientUnits="userSpaceOnUse"><stop offset=".006" style="stop-color:#5b5b5b"/><stop offset="1" style="stop-color:#6c6c6c"/></linearGradient><path id="path5961-3_83_" fill="url(#path5961-3_3_)" d="M-287.76215-1163.86365 c-6.57922,0-11.91281-5.33533-11.91281-11.91443c0-6.57837,5.33356-11.91284,11.91278-11.91284 c6.58188,0,11.91455,5.33447,11.91455,11.91272C-275.84763-1169.19897-281.1803-1163.86365-287.76215-1163.86365"/></g></g></svg>