<svg xmlns="http://www.w3.org/2000/svg" xmlns:svg="http://www.w3.org/2000/svg" xmlns:xlink="http://www.w3.org/1999/xlink" id="svg15246" width="33" height="33" x="0" y="0" enable-background="new 0 0 33 33" version="1.0" viewBox="0 0 33 33" xml:space="preserve"><path fill="#FFF" d="M25.53582,22.39863c1.10779-1.69714,1.75739-3.7207,1.75739-5.89862	c0-5.97198-4.84125-10.81317-10.81317-10.81317c-5.97198,0-10.81317,4.84119-10.81317,10.81317	c0,2.17792,0.6496,4.20148,1.75739,5.89862l4.79089,7.89569c0.80066,1.53583,2.41302,2.59515,4.26489,2.59515	s3.46417-1.05933,4.26483-2.59515L25.53582,22.39863z"/><path d="M16.48003,6.18684c5.6867,0,10.31317,4.62647,10.31317,10.31317	c0,2.00026-0.57958,3.94546-1.68484,5.63924l-4.80687,7.92393c-0.74805,1.43492-2.21235,2.3263-3.82146,2.3263	c-1.60915,0-3.07347-0.89138-3.83743-2.35453l-4.79966-7.90962c-1.0965-1.67986-1.67608-3.62506-1.67608-5.62532	C6.16686,10.81331,10.79333,6.18684,16.48003,6.18684 M16.48003,5.68684c-5.97198,0-10.81317,4.84119-10.81317,10.81317	c0,2.17792,0.6496,4.20148,1.75738,5.89862l4.7909,7.89569c0.80066,1.53583,2.41302,2.59516,4.26489,2.59516	s3.46417-1.05933,4.26483-2.59516l4.79096-7.89569c1.10778-1.69714,1.75738-3.7207,1.75738-5.89862	C27.2932,10.52803,22.45195,5.68684,16.48003,5.68684L16.48003,5.68684z" enable-background="new" opacity=".2"/></svg>