<svg xmlns="http://www.w3.org/2000/svg" xmlns:svg="http://www.w3.org/2000/svg" xmlns:xlink="http://www.w3.org/1999/xlink" id="svg12484" width="15.36" height="15.358" x="0" y="0" enable-background="new 0 0 15.36 15.358" version="1.0" viewBox="0 0 15.36 15.358" xml:space="preserve"><g><g id="g5959-5_11_" transform="translate(301.93513,1189.951)"><path id="path5961-3_11_" d="M-286.57513-1182.27051c0,4.24121-3.43939,7.67944-7.68057,7.67944 c-4.24057,0-7.67941-3.43823-7.67941-7.67944c0-4.24292,3.43884-7.68054,7.67941-7.68054 C-290.01453-1189.95105-286.57513-1186.51343-286.57513-1182.27051"/></g><g id="g5959-5_10_" transform="translate(301.93513,1189.951)"><linearGradient id="path5961-3_1_" x1="-590.606" x2="-576.765" y1="-2202.065" y2="-2202.065" gradientTransform="matrix(-3.267949e-07 1 -1 -3.267949e-07 -2496.32056 -598.5863)" gradientUnits="userSpaceOnUse"><stop offset="0" style="stop-color:#8d8b8c"/><stop offset="1" style="stop-color:#0d0c0c"/></linearGradient><path id="path5961-3_10_" fill="url(#path5961-3_1_)" d="M-301.17551-1182.27161 c0-3.82166,3.09924-6.9198,6.9209-6.9198c3.82117,0,6.91986,3.09814,6.91986,6.9198c0,3.82324-3.09872,6.9209-6.91986,6.9209 C-298.07629-1175.35071-301.17551-1178.44836-301.17551-1182.27161"/></g><g id="g5959-5_4_" transform="translate(301.93513,1189.951)"><path id="path5961-3_4_" fill="#393939" d="M-300.30203-1182.27148 c0-3.33936,2.70804-6.04651,6.04736-6.04651c3.33887,0,6.04645,2.70715,6.04645,6.04651c0,3.3407-2.70761,6.04736-6.04645,6.04736 C-297.59399-1176.22412-300.30203-1178.93079-300.30203-1182.27148"/></g><g id="g5959-5_2_" opacity=".29" transform="translate(301.93513,1189.951)"><linearGradient id="path5961-3_3_" x1="-437.818" x2="-425.724" y1="-1971.644" y2="-1971.644" gradientTransform="matrix(6.535898e-07 1 -1 6.535898e-07 -2265.89917 -750.49847)" gradientUnits="userSpaceOnUse"><stop offset="0" style="stop-color:#8d8b8c"/><stop offset="1" style="stop-color:#0d0c0c"/></linearGradient><path id="path5961-3_2_" fill="url(#path5961-3_3_)" d="M-294.25467-1188.31799 c3.33932,0,6.04645,2.70813,6.04645,6.04736c0,3.33887-2.70709,6.04651-6.04645,6.04651 c-3.3407,0-6.04736-2.70764-6.04736-6.04651C-300.30203-1185.60986-297.59537-1188.31799-294.25467-1188.31799"/></g></g></svg>