<svg xmlns="http://www.w3.org/2000/svg" xmlns:svg="http://www.w3.org/2000/svg" xmlns:xlink="http://www.w3.org/1999/xlink" id="svg64581" width="21.26" height="21.26" x="0" y="0" enable-background="new 0 0 21.26 21.26" version="1.0" viewBox="0 0 21.26 21.26" xml:space="preserve"><g id="g5959-5_76_" transform="translate(301.93513,1189.951)"><path id="path5961-3_82_" d="M-280.67484-1179.32007 c0,5.87036-4.76059,10.62927-10.63092,10.62927c-5.86954,0-10.62936-4.75891-10.62936-10.62927 c0-5.8728,4.75983-10.63098,10.62936-10.63098C-285.43542-1189.95105-280.67484-1185.19287-280.67484-1179.32007"/></g><g id="g5959-5_75_" transform="translate(301.93513,1189.951)"><linearGradient id="path5961-3_1_" x1="-589.508" x2="-571.963" y1="-2199.015" y2="-2199.015" gradientTransform="matrix(-3.267949e-07 1 -1 -3.267949e-07 -2490.32056 -598.5863)" gradientUnits="userSpaceOnUse"><stop offset="0" style="stop-color:#787878"/><stop offset="1" style="stop-color:#474747"/></linearGradient><path id="path5961-3_81_" fill="url(#path5961-3_1_)" d="M-300.0773-1179.32153 c0-4.84448,3.92859-8.77173,8.77298-8.77173c4.84375,0,8.7717,3.92725,8.7717,8.77173c0,4.84644-3.92795,8.77295-8.7717,8.77295 C-296.14871-1170.54858-300.0773-1174.4751-300.0773-1179.32153"/></g><g opacity=".21"><g id="g5959-5_72_" transform="translate(301.93513,1189.951)"><linearGradient id="path5961-3_2_" x1="-298.726" x2="-283.887" y1="-1119.552" y2="-1119.552" gradientTransform="matrix(-6.535898e-07 -1 1 -6.535898e-07 828.24695 -1470.6283)" gradientUnits="userSpaceOnUse"><stop offset=".006" style="stop-color:#6b6b6b"/><stop offset="1" style="stop-color:#dedede"/></linearGradient><path id="path5961-3_76_" fill="url(#path5961-3_2_)" d="M-291.30551-1171.90161 c-4.09726,0-7.41876-3.32263-7.41876-7.4198c0-4.09668,3.3215-7.41882,7.41876-7.41882c4.09888,0,7.41983,3.32214,7.41983,7.41882 C-283.88565-1175.22424-287.20663-1171.90161-291.30551-1171.90161"/></g></g><g><g id="g5959-5_71_" transform="translate(301.93513,1189.951)"><linearGradient id="path5961-3_3_" x1="-297.974" x2="-284.64" y1="-1119.552" y2="-1119.552" gradientTransform="matrix(-6.535898e-07 -1 1 -6.535898e-07 828.24695 -1470.6283)" gradientUnits="userSpaceOnUse"><stop offset=".006" style="stop-color:#5b5b5b"/><stop offset="1" style="stop-color:#6c6c6c"/></linearGradient><path id="path5961-3_75_" fill="url(#path5961-3_3_)" d="M-291.30545-1172.65405 c-3.6817,0-6.66632-2.98572-6.66632-6.66736c0-3.68115,2.98462-6.66626,6.66632-6.66626c3.68317,0,6.6673,2.98511,6.6673,6.66626 C-284.63815-1175.63977-287.62228-1172.65405-291.30545-1172.65405"/></g></g></svg>